<svg preserveAspectRatio="none" width="100%" height="100%" overflow="visible" style="display: block;" viewBox="0 0 48 48" fill="none" xmlns="http://www.w3.org/2000/svg">
<path id="icon" d="M20.2667 35.2L39.0667 16.4L35.3333 12.6667L20.2667 27.7333L12.6667 20.1333L8.93333 23.8667L20.2667 35.2ZM5.33333 48C3.86667 48 2.61111 47.4778 1.56667 46.4333C0.522222 45.3889 0 44.1333 0 42.6667V5.33333C0 3.86667 0.522222 2.61111 1.56667 1.56667C2.61111 0.522222 3.86667 0 5.33333 0H42.6667C44.1333 0 45.3889 0.522222 46.4333 1.56667C47.4778 2.61111 48 3.86667 48 5.33333V42.6667C48 44.1333 47.4778 45.3889 46.4333 46.4333C45.3889 47.4778 44.1333 48 42.6667 48H5.33333ZM5.33333 42.6667H42.6667V5.33333H5.33333V42.6667Z" fill="var(--fill-0, #BBFB4C)"/>
</svg>
